; OM File Header - Saved 2021/07/09 21:53:32
; (6.2 :patc (om-make-point 85 22) (om-make-point 0 0) (om-make-point 608 611) "No documentation " 183 0 nil "2021/07/09 21:53:32")
; End File Header
(in-package :om)(load-lib-for (quote ("OMPitchField")))(setf *om-current-persistent* (om-load-patch1 "angle" (quote ((let ((box (om-load-boxcall (quote genfun) "NESTING->TIMING 2" (quote nesting->timing) (quote ((om-load-inputfun (quote input-funbox) "nested list of numbers" "LST" nil) (om-load-inputfun (quote input-funbox) "number of nested levels to flatten [or if negative, abs val is number of nested levels to remain after flattening]" "LEVELS" -1) (om-load-inputfun (quote input-funbox) "time unit separating members of same sublist (multiplied at sublist boundaries)" "TIME-UNIT" 500))) (om-make-point 350 132) nil nil nil nil 2))) (when (fboundp (quote set-active)) (set-active box nil)) box) (let ((box (om-load-boxcall (quote genfun) "LIST-TI-PRIMEFORMS 2" (quote list-ti-primeforms) (quote ((om-load-inputfun (quote input-funbox) "number of elements in each primeform (or a list of such numbers)" "CARD" 3))) (om-make-point 219 163) nil nil nil nil 1))) (when (fboundp (quote set-active)) (set-active box nil)) box) (let ((box (om-load-boxcall (quote genfun) "LIST-TI-PRIMEFORMS 2" (quote list-ti-primeforms) (quote ((om-load-inputfun (quote input-funbox) "number of elements in each primeform (or a list of such numbers)" "CARD" 3))) (om-make-point 327 38) nil nil nil nil 1))) (when (fboundp (quote set-active)) (set-active box nil)) box) (let ((box (om-load-boxcomment "comment" (om-make-point 137 103) (quote "evaluate the \"values\" function to display two chords in the Patch window and return ic- and trichord-based similarity measures to the Listener") "" (om-make-point 4 431) nil (om-make-color 0 0 0) (om-make-font "Geneva" 10 :family "Geneva" :style (quote (:plain)) :mode (quote nil))))) (when (fboundp (quote set-active)) (set-active box nil)) box) (let ((box (om-load-boxcall (quote lispfun) "VALUES" (quote values) (quote ((om-load-inputfun (quote input-funbox) "add-input" "add-input" nil) (om-load-inputfun (quote input-funbox) "add-input" "add-input" nil) (om-load-inputfun (quote input-funbox) "add-input" "add-input" nil))) (om-make-point 253 494) nil nil nil nil 1))) (when (fboundp (quote set-active)) (set-active box nil)) box) (let ((box (om-load-boxcall (quote genfun) "P->MC1" (quote p->mc) (quote ((om-load-inputfun (quote input-funbox) "number or list" "SELF" nil))) (om-make-point 340 275) nil nil nil nil 1))) (when (fboundp (quote set-active)) (set-active box nil)) box) (let ((box (om-load-boxcall (quote genfun) "P->MC" (quote p->mc) (quote ((om-load-inputfun (quote input-funbox) "number or list" "SELF" nil))) (om-make-point 400 270) nil nil nil nil 1))) (when (fboundp (quote set-active)) (set-active box nil)) box) (let ((box (om-load-editor-box1 "CHORD1" (quote chord) (quote ((om-load-inputfun (quote input-funbox) "objs" "SELF" nil) (om-load-inputfun (quote input-funbox) "no documentation" "LMIDIC" (list 6000)) (om-load-inputfun (quote input-funbox) "no documentation" "LVEL" (list 100)) (om-load-inputfun (quote input-funbox) "no documentation" "LOFFSET" (list 0)) (om-load-inputfun (quote input-funbox) "no documentation" "LDUR" (list 1000)) (om-load-inputfun (quote input-funbox) "no documentation" "LCHAN" (list 1)))) (om-make-point 332 346) (om-make-point 76 90) (let ((thechord (make-instance (quote chord) :lmidic (quote (6000 6100 6200 6500 6800)) :ldur (quote (1000 1000 1000 1000 1000)) :lvel (quote (100 100 100 100 100)) :loffset (quote (0 0 0 0 0)) :lchan (quote (1 1 1 1 1))))) (load-port-info thechord (quote (0 0 0 0 0))) (init-mus-color thechord (quote nil)) (set-extra-pairs thechord (quote nil)) (set-tonalite thechord nil) thechord) nil nil (pairlis (quote (show-stems obj-mode palette-mode approx fontsize staff cmnpref deltapict outport inport zoom notechancolor? grillestep mode winsize winpos microplay scale cursor-mode score-mode player)) (list (quote t) 0 0 2 24 (quote g) (let ((newobj (make-instance (quote edition-values)))) (setf (paper-size newobj) (om-make-point 600 800)) (setf (top-margin newobj) 2) (setf (left-margin newobj) 1) (setf (right-margin newobj) 1) (setf (bottom-margin newobj) 1) (setf (orientation newobj) nil) (setf (scale newobj) nil) (setf (system-space newobj) (quote (1))) (setf (system-color newobj) (quote nil)) (setf (line-space newobj) 1) (setf (title newobj) nil) (setf (show-title? newobj) nil) (setf (show-page? newobj) nil) (setf (sheet-id newobj) nil) (setf (page-mode newobj) nil) newobj) (om-make-point 0 -12) 0 0 1 nil 1000 0 (om-make-point 500 280) (om-make-point 0 0) nil nil (quote :normal) 0 (quote :midi-player))) t nil nil nil))) (when (fboundp (quote set-active)) (set-active box nil)) box) (let ((box (om-load-editor-box1 "CHORD" (quote chord) (quote ((om-load-inputfun (quote input-funbox) "objs" "SELF" nil) (om-load-inputfun (quote input-funbox) "no documentation" "LMIDIC" (list 6000)) (om-load-inputfun (quote input-funbox) "no documentation" "LVEL" (list 100)) (om-load-inputfun (quote input-funbox) "no documentation" "LOFFSET" (list 0)) (om-load-inputfun (quote input-funbox) "no documentation" "LDUR" (list 1000)) (om-load-inputfun (quote input-funbox) "no documentation" "LCHAN" (list 1)))) (om-make-point 420 375) (om-make-point 76 87) (let ((thechord (make-instance (quote chord) :lmidic (quote (6000 6100 6200 6400 6500 6800)) :ldur (quote (1000 1000 1000 1000 1000 1000)) :lvel (quote (100 100 100 100 100 100)) :loffset (quote (0 0 0 0 0 0)) :lchan (quote (1 1 1 1 1 1))))) (load-port-info thechord (quote (0 0 0 0 0 0))) (init-mus-color thechord (quote nil)) (set-extra-pairs thechord (quote nil)) (set-tonalite thechord nil) thechord) nil nil (pairlis (quote (show-stems obj-mode palette-mode approx fontsize staff cmnpref deltapict outport inport zoom notechancolor? grillestep mode winsize winpos microplay scale)) (list (quote t) 0 0 2 24 (quote g) (let ((newobj (make-instance (quote edition-values)))) (setf (paper-size newobj) (om-make-point 600 800)) (setf (top-margin newobj) 2) (setf (left-margin newobj) 1) (setf (right-margin newobj) 1) (setf (bottom-margin newobj) 1) (setf (orientation newobj) nil) (setf (scale newobj) nil) (setf (system-space newobj) (quote (1))) (setf (system-color newobj) (quote nil)) (setf (line-space newobj) 1) (setf (title newobj) nil) (setf (show-title? newobj) nil) (setf (show-page? newobj) nil) (setf (sheet-id newobj) nil) (setf (page-mode newobj) nil) newobj) (om-make-point 0 -11) 0 0 1 nil 1000 0 18350450 2621450 nil nil)) t nil nil nil))) (when (fboundp (quote set-active)) (set-active box nil)) box) (let ((box (om-load-boxcall (quote genfun) "NTH-RANDOM1" (quote nth-random) (quote ((om-load-inputfun (quote input-funbox) "the list" "LIST" nil))) (om-make-point 305 198) nil nil "&" nil 1))) (when (fboundp (quote set-active)) (set-active box nil)) box) (let ((box (om-load-boxcall (quote bastype) "list7" (quote list) (quote nil) (om-make-point 303 4) (om-make-point 50 28) (list 4 5 6) "(4 5 6)" nil))) (when (fboundp (quote set-active)) (set-active box nil)) box) (let ((box (om-load-boxcall (quote genfun) "NTH-RANDOM" (quote nth-random) (quote ((om-load-inputfun (quote input-funbox) "the list" "LIST" nil))) (om-make-point 397 213) nil nil "&" nil 1))) (when (fboundp (quote set-active)) (set-active box nil)) box) (let ((box (om-load-boxcall (quote bastype) "list6" (quote list) (quote nil) (om-make-point 160 347) (om-make-point 62 28) "trichord" "\"trichord\"" nil))) (when (fboundp (quote set-active)) (set-active box nil)) box) (let ((box (om-load-boxcall (quote bastype) "list5" (quote list) (quote nil) (om-make-point 139 390) (om-make-point 32 28) "ic" "\"ic\"" nil))) (when (fboundp (quote set-active)) (set-active box nil)) box) (let ((box (om-load-boxcall (quote lispfun) "LIST4" (quote list) (quote ((om-load-inputfun (quote input-funbox) "add-input" "add-input" nil) (om-load-inputfun (quote input-funbox) "add-input" "add-input" nil) (om-load-inputfun (quote input-funbox) "add-input" "add-input" nil) (om-load-inputfun (quote input-funbox) "add-input" "add-input" nil))) (om-make-point 165 420) nil nil nil nil 1))) (when (fboundp (quote set-active)) (set-active box nil)) box) (let ((box (om-load-boxcall (quote bastype) "list3" (quote list) (quote nil) (om-make-point 208 116) (om-make-point 32 27) 3 "3" nil))) (when (fboundp (quote set-active)) (set-active box nil)) box) (let ((box (om-load-boxcall (quote genfun) "INCL-VEC-ANGLE1" (quote incl-vec-angle) (quote ((om-load-inputfun (quote input-funbox) "list of integers" "CHORD1" nil) (om-load-inputfun (quote input-funbox) "list of integers" "CHORD2" nil) (om-load-inputfun (quote input-funbox) "list of items, each an integer or an integer list beginning :t, :ti, :tp, or :tip" "CLASSREPS" (list 1 2 3 4 5 6)))) (om-make-point 180 272) nil nil nil nil 1))) (when (fboundp (quote set-active)) (set-active box nil)) box) (let ((box (om-load-boxcall (quote bastype) "list2" (quote list) (quote nil) (om-make-point 97 206) (om-make-point 84 25) (list 1 2 3 4 5 6) "(1 2 3 4 5 6)" nil))) (when (fboundp (quote set-active)) (set-active box nil)) box) (let ((box (om-load-boxcall (quote genfun) "INCL-VEC-ANGLE" (quote incl-vec-angle) (quote ((om-load-inputfun (quote input-funbox) "list of integers" "CHORD1" nil) (om-load-inputfun (quote input-funbox) "list of integers" "CHORD2" nil) (om-load-inputfun (quote input-funbox) "list of items, each an integer or an integer list beginning :t, :ti, :tp, or :tip" "CLASSREPS" (list 1 2 3 4 5 6)))) (om-make-point 80 270) nil nil nil nil 1))) (when (fboundp (quote set-active)) (set-active box nil)) box))) (quote ((2 0 0 0 nil 0) (15 0 1 0 nil 0) (10 0 2 0 nil 0) (14 0 4 0 nil 0) (7 0 4 1 nil 0) (8 0 4 2 nil 0) (9 0 5 0 nil 0) (11 0 6 0 nil 0) (5 0 7 1 nil 0) (6 0 8 1 nil 0) (0 0 9 0 nil 0) (0 0 11 0 nil 0) (13 0 14 0 nil 0) (18 0 14 1 nil 0) (12 0 14 2 nil 0) (16 0 14 3 nil 0) (11 0 16 0 nil 0) (9 0 16 1 nil 0) (1 0 16 2 nil 0) (11 0 18 0 nil 0) (9 0 18 1 nil 0) (17 0 18 2 nil 0))) nil 6.2))
