; OM File Header - Saved 2008/11/07 13:50:38
; (6.04 :patc (om-make-point 147 23) (om-make-point 50 50) (om-make-point 500 400) "No documentation " 183 0 nil nil)
; End File Header
(in-package :om)(load-lib-for '("OMPitchField"))(setf *om-current-persistent* (om-load-patch1 "to_forte_numbers" '((om-load-boxout "output2" 1 (om-make-point 254 329) '((om-load-inputfun 'input-funbox "out" "out" nil)) "forte-num" nil) (om-load-boxout "output1" 0 (om-make-point 270 180) '((om-load-inputfun 'input-funbox "out" "out" nil)) "card" nil) (om-load-boxin "input" 0 (om-make-point 85 15) "no documentation" "pcs" nil nil) (om-load-boxcall 'lispfun "1+" '1+ '((om-load-inputfun 'input-funbox "NUMBER" "NUMBER" nil)) (om-make-point 274 282) nil nil nil nil 1) (om-load-boxcall 'lispfun "EQUAL" 'equal '((om-load-inputfun 'input-funbox "OBJECT1" "OBJECT1" nil) (om-load-inputfun 'input-funbox "OBJECT2" "OBJECT2" nil)) (om-make-point 123 209) nil nil "l" nil 1) (om-load-boxcall 'lispfun "POSITION" 'position '((om-load-inputfun 'input-funbox "ITEM" "ITEM" nil) (om-load-inputfun 'input-funbox "SEQUENCE" "SEQUENCE" nil) (om-load-inputfun 'input-keyword "Choose from this list (:TEST-NOT :TEST :KEY :FROM-END :END :START)" "Keyword input" ':test)) (om-make-point 100 278) nil nil nil nil 1) (om-load-boxcall 'genfun "LIST-TI-PRIMEFORMS" 'list-ti-primeforms '((om-load-inputfun 'input-funbox "number of elements in each primeform (or a list of such numbers)" "CARD" 3) (om-load-inputfunmenu1 'input-funmenu "" "TAG" nil (list (list "normal" nil) (list "tagged [:ti]" ':ti)))) (om-make-point 156 182) nil nil nil nil 1) (om-load-boxcall 'lispfun "LENGTH" 'length '((om-load-inputfun 'input-funbox "SEQUENCE" "SEQUENCE" nil)) (om-make-point 176 125) nil nil nil nil 1) (om-load-boxcall 'genfun "TI-PRIMEFORM" 'ti-primeform '((om-load-inputfun 'input-funbox "any member of the set class whose ti-primeform is sought" "PCSET" (list 1 3 4))) (om-make-point 120 48) nil nil nil nil 1)) '((3 0 0 0 nil 0) (7 0 1 0 nil 0) (5 0 3 0 nil 0) (8 0 5 0 nil 0) (6 0 5 1 nil 0) (4 0 5 2 nil 0) (7 0 6 0 nil 0) (8 0 7 0 nil 0) (2 0 8 0 nil 0)) nil 5.1))
