; OM File Header - Saved 2008/11/07 13:50:39
; (6.04 :patc (om-make-point 165 14) (om-make-point 50 50) (om-make-point 1014 628) "No documentation " 183 0 nil "2008/11/06 19:34:53")
; End File Header
(in-package :om)(load-lib-for (quote ("ompitchfield")))(setf *om-current-persistent* (om-load-patch1 "genera (2)" (quote ((om-load-boxcall (quote patch-box) "from_forte_numbers1" (quote ("elements" "ompitchfield" "misc" "forte" "basics" "from_forte_numbers")) (quote ((om-load-inputfun (quote input-funbox) "no documentation" "card" nil) (om-load-inputfun (quote input-funbox) "no documentation" "forte-num" nil))) (om-make-point 128 36) nil nil nil nil 1) (om-load-boxcall (quote bastype) "list5" (quote list) (quote nil) (om-make-point 146 7) (om-make-point 20 28) 3 "3" nil) (om-load-boxcall (quote bastype) "list11" (quote list) (quote nil) (om-make-point 204 7) (om-make-point 26 28) 11 "11" nil) (om-load-boxcall (quote lispfun) "CONS1" (quote cons) (quote ((om-load-inputfun (quote input-funbox) "X" "X" (quote :ti)) (om-load-inputfun (quote input-funbox) "LIST-OR-THING" "LIST-OR-THING" nil))) (om-make-point 151 106) nil nil nil nil 1) (om-load-boxcall (quote lispfun) "LIST32" (quote list) (quote ((om-load-inputfun (quote input-funbox) "add-input" "add-input" nil) (om-load-inputfun (quote input-funbox) "add-input" "add-input" 1) (om-load-inputfun (quote input-funbox) "add-input" "add-input" 99))) (om-make-point 113 147) nil nil nil nil 1) (om-load-boxcall (quote genfun) "P->MC" (quote p->mc) (quote ((om-load-inputfun (quote input-funbox) "number or list" "SELF" nil))) (om-make-point 787 284) nil nil nil nil 1) (om-load-editor-box1 "CHORD-SEQ" (quote chord-seq) (quote ((om-load-inputfun (quote input-funbox) "objs" "SELF" nil) (om-load-inputfun (quote input-funbox) "no documentation" "LMIDIC" (list 6000)) (om-load-inputfun (quote input-funbox) "no documentation" "LONSET" (list 0 1000)) (om-load-inputfun (quote input-funbox) "no documentation" "LDUR" (list 1000)) (om-load-inputfun (quote input-funbox) "no documentation" "LVEL" (list 100)) (om-load-inputfun (quote input-funbox) "no documentation" "LOFFSET" (list 0)) (om-load-inputfun (quote input-funbox) "no documentation" "LCHAN" (list 1)) (om-load-inputfun (quote input-funbox) "no documentation" "LEGATO" 0))) (om-make-point 782 357) (om-make-point 143 104) (let ((newobj (when (find-class (quote chord-seq) nil) (make-instance (quote chord-seq) :lmidic (quote ((6000 6200 6400 6700) (6000 6300 6500 6800) (6000 6200 6500 6800) (6000 6200 6300 6400 6700) (6000 6200 6300 6500 6700) (6000 6100 6300 6500 6700) (6000 6200 6300 6500 6800) (6000 6200 6400 6500 6800) (6000 6100 6300 6500 6800) (6000 6200 6300 6600 6800) (6000 6100 6300 6600 6800) (6000 6100 6400 6600 6800) (6000 6100 6300 6600 6900) (6000 6100 6400 6600 6900) (6000 6200 6400 6600 6900) (6000 6200 6400 6700 6900) (6000 6100 6200 6400 6700) (6000 6300 6400 6500 6800) (6000 6100 6200 6500 6800) (6000 6200 6300 6400 6500 6700) (6000 6100 6200 6300 6500 6700) (6000 6100 6300 6400 6500 6700) (6000 6100 6200 6400 6500 6700) (6000 6100 6200 6400 6600 6700) (6000 6100 6300 6400 6500 6800) (6000 6100 6200 6400 6500 6800) (6000 6100 6400 6500 6600 6800) (6000 6100 6200 6400 6700 6800) (6000 6100 6200 6500 6700 6800) (6000 6200 6300 6400 6600 6800) (6000 6100 6200 6400 6600 6800) (6000 6200 6300 6500 6600 6800) (6000 6100 6300 6400 6600 6800) (6000 6100 6300 6500 6600 6800) (6000 6100 6300 6500 6700 6800) (6000 6100 6300 6400 6600 6900) (6000 6100 6300 6500 6600 6900) (6000 6200 6300 6600 6700 6900) (6000 6100 6300 6600 6700 6900) (6000 6100 6400 6500 6700 6900) (6000 6200 6400 6500 6700 6900) (6000 6200 6300 6500 6700 6900) (6000 6100 6300 6500 6700 6900) (6000 6100 6200 6300 6400 6700) (6000 6200 6300 6400 6500 6800) (6000 6100 6200 6300 6500 6800) (6000 6100 6200 6300 6600 6800) (6000 6100 6200 6300 6600 6900) (6000 6100 6200 6500 6600 6800) (6000 6100 6200 6500 6600 6900) (6000 6200 6300 6400 6600 6900) (6000 6100 6200 6400 6600 6900) (6000 6100 6200 6400 6700 6900) (6000 6100 6200 6500 6700 6900) (6000 6100 6300 6400 6700 6900) (6000 6100 6400 6600 6700 6900))) :lonset (quote (0 500 1000 2000 2500 3000 3500 4000 4500 5000 5500 6000 6500 7000 7500 8000 8500 9000 9500 10500 11000 11500 12000 12500 13000 13500 14000 14500 15000 15500 16000 16500 17000 17500 18000 18500 19000 19500 20000 20500 21000 21500 22000 22500 23000 23500 24000 24500 25000 25500 26000 26500 27000 27500 28000 28500 29500)) :ldur (quote ((1000 1000 1000 1000) (1000 1000 1000 1000) (1000 1000 1000 1000) (1000 1000 1000 1000 1000) (1000 1000 1000 1000 1000) (1000 1000 1000 1000 1000) (1000 1000 1000 1000 1000) (1000 1000 1000 1000 1000) (1000 1000 1000 1000 1000) (1000 1000 1000 1000 1000) (1000 1000 1000 1000 1000) (1000 1000 1000 1000 1000) (1000 1000 1000 1000 1000) (1000 1000 1000 1000 1000) (1000 1000 1000 1000 1000) (1000 1000 1000 1000 1000) (1000 1000 1000 1000 1000) (1000 1000 1000 1000 1000) (1000 1000 1000 1000 1000) (1000 1000 1000 1000 1000 1000) (1000 1000 1000 1000 1000 1000) (1000 1000 1000 1000 1000 1000) (1000 1000 1000 1000 1000 1000) (1000 1000 1000 1000 1000 1000) (1000 1000 1000 1000 1000 1000) (1000 1000 1000 1000 1000 1000) (1000 1000 1000 1000 1000 1000) (1000 1000 1000 1000 1000 1000) (1000 1000 1000 1000 1000 1000) (1000 1000 1000 1000 1000 1000) (1000 1000 1000 1000 1000 1000) (1000 1000 1000 1000 1000 1000) (1000 1000 1000 1000 1000 1000) (1000 1000 1000 1000 1000 1000) (1000 1000 1000 1000 1000 1000) (1000 1000 1000 1000 1000 1000) (1000 1000 1000 1000 1000 1000) (1000 1000 1000 1000 1000 1000) (1000 1000 1000 1000 1000 1000) (1000 1000 1000 1000 1000 1000) (1000 1000 1000 1000 1000 1000) (1000 1000 1000 1000 1000 1000) (1000 1000 1000 1000 1000 1000) (1000 1000 1000 1000 1000 1000) (1000 1000 1000 1000 1000 1000) (1000 1000 1000 1000 1000 1000) (1000 1000 1000 1000 1000 1000) (1000 1000 1000 1000 1000 1000) (1000 1000 1000 1000 1000 1000) (1000 1000 1000 1000 1000 1000) (1000 1000 1000 1000 1000 1000) (1000 1000 1000 1000 1000 1000) (1000 1000 1000 1000 1000 1000) (1000 1000 1000 1000 1000 1000) (1000 1000 1000 1000 1000 1000) (1000 1000 1000 1000 1000 1000))) :lvel (quote ((100 100 100 100) (100 100 100 100) (100 100 100 100) (100 100 100 100 100) (100 100 100 100 100) (100 100 100 100 100) (100 100 100 100 100) (100 100 100 100 100) (100 100 100 100 100) (100 100 100 100 100) (100 100 100 100 100) (100 100 100 100 100) (100 100 100 100 100) (100 100 100 100 100) (100 100 100 100 100) (100 100 100 100 100) (100 100 100 100 100) (100 100 100 100 100) (100 100 100 100 100) (100 100 100 100 100 100) (100 100 100 100 100 100) (100 100 100 100 100 100) (100 100 100 100 100 100) (100 100 100 100 100 100) (100 100 100 100 100 100) (100 100 100 100 100 100) (100 100 100 100 100 100) (100 100 100 100 100 100) (100 100 100 100 100 100) (100 100 100 100 100 100) (100 100 100 100 100 100) (100 100 100 100 100 100) (100 100 100 100 100 100) (100 100 100 100 100 100) (100 100 100 100 100 100) (100 100 100 100 100 100) (100 100 100 100 100 100) (100 100 100 100 100 100) (100 100 100 100 100 100) (100 100 100 100 100 100) (100 100 100 100 100 100) (100 100 100 100 100 100) (100 100 100 100 100 100) (100 100 100 100 100 100) (100 100 100 100 100 100) (100 100 100 100 100 100) (100 100 100 100 100 100) (100 100 100 100 100 100) (100 100 100 100 100 100) (100 100 100 100 100 100) (100 100 100 100 100 100) (100 100 100 100 100 100) (100 100 100 100 100 100) (100 100 100 100 100 100) (100 100 100 100 100 100) (100 100 100 100 100 100))) :loffset (quote ((0 0 0 0) (0 0 0 0) (0 0 0 0) (0 0 0 0 0) (0 0 0 0 0) (0 0 0 0 0) (0 0 0 0 0) (0 0 0 0 0) (0 0 0 0 0) (0 0 0 0 0) (0 0 0 0 0) (0 0 0 0 0) (0 0 0 0 0) (0 0 0 0 0) (0 0 0 0 0) (0 0 0 0 0) (0 0 0 0 0) (0 0 0 0 0) (0 0 0 0 0) (0 0 0 0 0 0) (0 0 0 0 0 0) (0 0 0 0 0 0) (0 0 0 0 0 0) (0 0 0 0 0 0) (0 0 0 0 0 0) (0 0 0 0 0 0) (0 0 0 0 0 0) (0 0 0 0 0 0) (0 0 0 0 0 0) (0 0 0 0 0 0) (0 0 0 0 0 0) (0 0 0 0 0 0) (0 0 0 0 0 0) (0 0 0 0 0 0) (0 0 0 0 0 0) (0 0 0 0 0 0) (0 0 0 0 0 0) (0 0 0 0 0 0) (0 0 0 0 0 0) (0 0 0 0 0 0) (0 0 0 0 0 0) (0 0 0 0 0 0) (0 0 0 0 0 0) (0 0 0 0 0 0) (0 0 0 0 0 0) (0 0 0 0 0 0) (0 0 0 0 0 0) (0 0 0 0 0 0) (0 0 0 0 0 0) (0 0 0 0 0 0) (0 0 0 0 0 0) (0 0 0 0 0 0) (0 0 0 0 0 0) (0 0 0 0 0 0) (0 0 0 0 0 0) (0 0 0 0 0 0))) :lchan (quote ((1 1 1 1) (1 1 1 1) (1 1 1 1) (1 1 1 1 1) (1 1 1 1 1) (1 1 1 1 1) (1 1 1 1 1) (1 1 1 1 1) (1 1 1 1 1) (1 1 1 1 1) (1 1 1 1 1) (1 1 1 1 1) (1 1 1 1 1) (1 1 1 1 1) (1 1 1 1 1) (1 1 1 1 1) (1 1 1 1 1) (1 1 1 1 1) (1 1 1 1 1) (1 1 1 1 1 1) (1 1 1 1 1 1) (1 1 1 1 1 1) (1 1 1 1 1 1) (1 1 1 1 1 1) (1 1 1 1 1 1) (1 1 1 1 1 1) (1 1 1 1 1 1) (1 1 1 1 1 1) (1 1 1 1 1 1) (1 1 1 1 1 1) (1 1 1 1 1 1) (1 1 1 1 1 1) (1 1 1 1 1 1) (1 1 1 1 1 1) (1 1 1 1 1 1) (1 1 1 1 1 1) (1 1 1 1 1 1) (1 1 1 1 1 1) (1 1 1 1 1 1) (1 1 1 1 1 1) (1 1 1 1 1 1) (1 1 1 1 1 1) (1 1 1 1 1 1) (1 1 1 1 1 1) (1 1 1 1 1 1) (1 1 1 1 1 1) (1 1 1 1 1 1) (1 1 1 1 1 1) (1 1 1 1 1 1) (1 1 1 1 1 1) (1 1 1 1 1 1) (1 1 1 1 1 1) (1 1 1 1 1 1) (1 1 1 1 1 1) (1 1 1 1 1 1) (1 1 1 1 1 1))) :legato 0)))) (load-port-info newobj (quote ((0 0 0 0) (0 0 0 0) (0 0 0 0) (0 0 0 0 0) (0 0 0 0 0) (0 0 0 0 0) (0 0 0 0 0) (0 0 0 0 0) (0 0 0 0 0) (0 0 0 0 0) (0 0 0 0 0) (0 0 0 0 0) (0 0 0 0 0) (0 0 0 0 0) (0 0 0 0 0) (0 0 0 0 0) (0 0 0 0 0) (0 0 0 0 0) (0 0 0 0 0) (0 0 0 0 0 0) (0 0 0 0 0 0) (0 0 0 0 0 0) (0 0 0 0 0 0) (0 0 0 0 0 0) (0 0 0 0 0 0) (0 0 0 0 0 0) (0 0 0 0 0 0) (0 0 0 0 0 0) (0 0 0 0 0 0) (0 0 0 0 0 0) (0 0 0 0 0 0) (0 0 0 0 0 0) (0 0 0 0 0 0) (0 0 0 0 0 0) (0 0 0 0 0 0) (0 0 0 0 0 0) (0 0 0 0 0 0) (0 0 0 0 0 0) (0 0 0 0 0 0) (0 0 0 0 0 0) (0 0 0 0 0 0) (0 0 0 0 0 0) (0 0 0 0 0 0) (0 0 0 0 0 0) (0 0 0 0 0 0) (0 0 0 0 0 0) (0 0 0 0 0 0) (0 0 0 0 0 0) (0 0 0 0 0 0) (0 0 0 0 0 0) (0 0 0 0 0 0) (0 0 0 0 0 0) (0 0 0 0 0 0) (0 0 0 0 0 0) (0 0 0 0 0 0) (0 0 0 0 0 0)))) (init-mus-color newobj (quote nil)) (set-extra-pairs newobj (quote nil)) (set-patch-pairs newobj (quote nil)) (set-tonalite newobj nil) newobj) nil nil (pairlis (quote (scale microplay winpos winsize mode grillestep notechancolor? zoom inport outport deltapict cmnpref staff fontsize approx palette-mode obj-mode show-stems)) (list nil nil 2621450 18350450 0 1000 nil 1 0 0 (om-make-point 0 0) (let ((newobj (make-instance (quote edition-values)))) (setf (paper-size newobj) (om-make-point 600 800)) (setf (top-margin newobj) 2) (setf (left-margin newobj) 1) (setf (right-margin newobj) 1) (setf (bottom-margin newobj) 1) (setf (orientation newobj) nil) (setf (scale newobj) nil) (setf (system-space newobj) (quote (1))) (setf (line-space newobj) 1) (setf (title newobj) nil) (setf (show-title? newobj) nil) (setf (show-page? newobj) nil) (setf (sheet-id newobj) nil) (setf (page-mode newobj) nil) newobj) (quote g) 24 2 0 0 (quote t))) t nil nil nil) (let ((newbox (om-load-boxcall (quote genfun) "NESTING->TIMING" (quote nesting->timing) (quote ((om-load-inputfun (quote input-funbox) "nested list of numbers" "LST" nil) (om-load-inputfun (quote input-funbox) "number of nested levels to flatten [or if negative, abs val is number of nested levels to remain after flattening]" "LEVELS" -1) (om-load-inputfun (quote input-funbox) "time unit separating members of same sublist (multiplied at sublist boundaries)" "TIME-UNIT" 500))) (om-make-point 848 220) nil nil nil nil 2))) (setf (frame-position newbox) (om-make-point 848 220)) newbox) (om-load-boxcall (quote lispfun) "LIST2" (quote list) (quote ((om-load-inputfun (quote input-funbox) "add-input" "add-input" nil) (om-load-inputfun (quote input-funbox) "add-input" "add-input" nil) (om-load-inputfun (quote input-funbox) "add-input" "add-input" nil))) (om-make-point 545 427) (om-make-point 63 37) nil nil nil 1) (om-load-boxcomment "comment1" (om-make-point 201 147) (quote "GENUS (nickname) PROGENITORS$5 (chroma) 3-1 & 3-2$6 (semichroma) 3-2 & 3-3$7 (chroma-dia) 3-2 & 3-7$8 (atonal) 3-3 & 3-4$9 (atonal-tonal) 3-3 & 3-11$10 (atonal-tonal) 3-4 & 3-11$11 (dia) 3-7 & 3-9$12 (dia-tonal) 3-7 & 3-11") "" (om-make-point 304 10) nil (om-make-color 0 0 0) (om-make-font "Geneva" 10 :family "Geneva" :style (quote (:bold)) :mode (quote nil))) (om-load-boxcomment "comment" (om-make-point 428 137) (quote "Forte's \"genera\" are twelve families of pcset classes based on special inclusion relations. Certain pairs of interval classes occur in exactly two trichordal set classes, and in each case the two trichordal set classes are jointly potential progenitors of a distinct genus. (Forte discards the products of two of these progenitor-pairs, because in each case these results are completely contained in a similar but larger genus.)$$To produce a listing of the tetrachords, pentads, and hexachords of Forte's dual-$progenitor genera, enter the appropriate progenitor from the table at left.") "" (om-make-point 513 10) nil (om-make-color 0 0 0) (om-make-font "Geneva" 10 :family "Geneva" :style (quote (:plain)) :mode (quote nil))) (om-load-boxcall (quote abstraction) "mypatch11" (om-load-patch-abs1 "contain" (quote ((om-load-boxout "output" 0 (om-make-point 184 329) (quote ((om-load-inputfun (quote input-funbox) "out" "out" nil))) nil nil) (om-load-boxcall (quote lispfun) "ZEROP" (quote zerop) (quote ((om-load-inputfun (quote input-funbox) "NUMBER" "NUMBER" nil))) (om-make-point 145 284) nil nil nil nil 1) (om-load-boxin "input1" 1 (om-make-point 160 45) "no documentation" "classreps" nil nil) (om-load-boxcall (quote lispfun) "APPLY" (quote apply) (quote ((om-load-inputfun (quote input-funbox) "FUNCTION" "FUNCTION" (quote +)) (om-load-inputfun (quote input-funbox) "FIRST-ARG" "FIRST-ARG" nil))) (om-make-point 133 220) nil nil nil nil 1) (om-load-boxin "input" 0 (om-make-point 110 45) "no documentation" "chord" nil nil) (om-load-boxcall (quote genfun) "INCL-VEC" (quote incl-vec) (quote ((om-load-inputfun (quote input-funbox) "list of integers" "CHORD" nil) (om-load-inputfun (quote input-funbox) "list of items, each an integer or an integer list beginning :t, :ti, :tp, or :tip" "CLASSREPS" (list 1 2 3 4 5 6)))) (om-make-point 122 114) nil nil nil nil 1))) (quote ((1 0 0 0 nil 0) (3 0 1 0 nil 0) (5 0 3 1 nil 0) (4 0 5 0 nil 0) (2 0 5 1 nil 0))) 6.04 nil) (quote ((om-load-inputfun (quote input-funbox) "no documentation" "chord" nil) (om-load-inputfun (quote input-funbox) "no documentation" "classreps" nil))) (om-make-point 545 252) nil nil "l" "contain") (om-load-boxcall (quote genfun) "FILTER-CHORDLIST21" (quote filter-chordlist) (quote ((om-load-inputfun (quote input-funbox) "test" "TEST" nil) (om-load-inputfun (quote input-funbox) "list of chords" "CHORDLIST" nil) (om-load-inputfunmenu1 (quote input-funmenu) "" "REJECT" (quote t) (list (list "pass" nil) (list "reject" (quote t)))))) (om-make-point 558 331) nil nil nil nil 1) (om-load-boxcall (quote bastype) "list411" (quote list) (quote nil) (om-make-point 616 182) (om-make-point 20 28) 6 "6" nil) (om-load-boxcall (quote genfun) "LIST-TI-PRIMEFORMS11" (quote list-ti-primeforms) (quote ((om-load-inputfun (quote input-funbox) "number of elements in each primeform (or a list of such numbers)" "CARD" 3) (om-load-inputfunmenu1 (quote input-funmenu) "" "TAG" nil (list (list "normal" nil) (list "tagged [:ti]" (quote :ti)))))) (om-make-point 598 210) nil nil nil nil 1) (om-load-boxcall (quote abstraction) "mypatch2" (om-load-patch-abs1 "ti-tags" (quote ((om-load-boxcall (quote lispfun) "CONS" (quote cons) (quote ((om-load-inputfun (quote input-funbox) "X" "X" (quote :ti)) (om-load-inputfun (quote input-funbox) "LIST-OR-THING" "LIST-OR-THING" nil))) (om-make-point 183 160) nil nil nil nil 1) (om-load-boxin "input" 0 (om-make-point 199 82) "no documentation" nil nil nil) (om-load-boxout "output" 0 (om-make-point 194 223) (quote ((om-load-inputfun (quote input-funbox) "out" "out" nil))) nil nil))) (quote ((1 0 0 1 nil 0) (0 0 2 0 nil 0))) 6.04 nil) (quote ((om-load-inputfun (quote input-funbox) "no documentation" "input" nil))) (om-make-point 274 424) nil nil "l" "ti-tags") (om-load-boxcall (quote lispfun) "MAPCAR1" (quote mapcar) (quote ((om-load-inputfun (quote input-funbox) "FUNCTION" "FUNCTION" nil) (om-load-inputfun (quote input-funbox) "LIST" "LIST" nil))) (om-make-point 349 440) nil nil nil nil 1) (om-load-boxcall (quote genfun) "FILTER-CHORDLIST2" (quote filter-chordlist) (quote ((om-load-inputfun (quote input-funbox) "test" "TEST" nil) (om-load-inputfun (quote input-funbox) "list of chords" "CHORDLIST" nil) (om-load-inputfunmenu1 (quote input-funmenu) "" "REJECT" (quote t) (list (list "pass" nil) (list "reject" (quote t)))))) (om-make-point 329 331) nil nil nil nil 1) (om-load-boxcall (quote abstraction) "mypatch1" (om-load-patch-abs1 "contain" (quote ((om-load-boxout "output" 0 (om-make-point 184 329) (quote ((om-load-inputfun (quote input-funbox) "out" "out" nil))) nil nil) (om-load-boxcall (quote lispfun) "ZEROP" (quote zerop) (quote ((om-load-inputfun (quote input-funbox) "NUMBER" "NUMBER" nil))) (om-make-point 145 284) nil nil nil nil 1) (om-load-boxin "input1" 1 (om-make-point 160 45) "no documentation" "classreps" nil nil) (om-load-boxcall (quote lispfun) "APPLY" (quote apply) (quote ((om-load-inputfun (quote input-funbox) "FUNCTION" "FUNCTION" (quote +)) (om-load-inputfun (quote input-funbox) "FIRST-ARG" "FIRST-ARG" nil))) (om-make-point 133 220) nil nil nil nil 1) (om-load-boxin "input" 0 (om-make-point 110 45) "no documentation" "chord" nil nil) (om-load-boxcall (quote genfun) "INCL-VEC" (quote incl-vec) (quote ((om-load-inputfun (quote input-funbox) "list of integers" "CHORD" nil) (om-load-inputfun (quote input-funbox) "list of items, each an integer or an integer list beginning :t, :ti, :tp, or :tip" "CLASSREPS" (list 1 2 3 4 5 6)))) (om-make-point 122 114) nil nil nil nil 1))) (quote ((1 0 0 0 nil 0) (3 0 1 0 nil 0) (5 0 3 1 nil 0) (4 0 5 0 nil 0) (2 0 5 1 nil 0))) 6.04 nil) (quote ((om-load-inputfun (quote input-funbox) "no documentation" "chord" nil) (om-load-inputfun (quote input-funbox) "no documentation" "classreps" nil))) (om-make-point 306 252) nil nil "l" "contain") (om-load-boxcall (quote bastype) "list41" (quote list) (quote nil) (om-make-point 377 182) (om-make-point 20 28) 5 "5" nil) (om-load-boxcall (quote genfun) "LIST-TI-PRIMEFORMS1" (quote list-ti-primeforms) (quote ((om-load-inputfun (quote input-funbox) "number of elements in each primeform (or a list of such numbers)" "CARD" 3) (om-load-inputfunmenu1 (quote input-funmenu) "" "TAG" nil (list (list "normal" nil) (list "tagged [:ti]" (quote :ti)))))) (om-make-point 359 210) nil nil nil nil 1) (om-load-boxcall (quote abstraction) "mypatch" (om-load-patch-abs1 "ti-tags" (quote ((om-load-boxcall (quote lispfun) "CONS" (quote cons) (quote ((om-load-inputfun (quote input-funbox) "X" "X" (quote :ti)) (om-load-inputfun (quote input-funbox) "LIST-OR-THING" "LIST-OR-THING" nil))) (om-make-point 183 160) nil nil nil nil 1) (om-load-boxin "input" 0 (om-make-point 199 82) "no documentation" nil nil nil) (om-load-boxout "output" 0 (om-make-point 194 223) (quote ((om-load-inputfun (quote input-funbox) "out" "out" nil))) nil nil))) (quote ((1 0 0 1 nil 0) (0 0 2 0 nil 0))) 6.04 nil) (quote ((om-load-inputfun (quote input-funbox) "no documentation" "input" nil))) (om-make-point 45 445) nil nil "l" "ti-tags") (om-load-boxcall (quote lispfun) "MAPCAR" (quote mapcar) (quote ((om-load-inputfun (quote input-funbox) "FUNCTION" "FUNCTION" nil) (om-load-inputfun (quote input-funbox) "LIST" "LIST" nil))) (om-make-point 120 461) nil nil nil nil 1) (om-load-boxcall (quote lispfun) "LIST31" (quote list) (quote ((om-load-inputfun (quote input-funbox) "add-input" "add-input" nil) (om-load-inputfun (quote input-funbox) "add-input" "add-input" nil))) (om-make-point 86 227) nil nil nil nil 1) (let ((newbox (om-load-boxcall (quote genfun) "MAKE-INCLUSION-TEST" (quote make-inclusion-test) (quote ((om-load-inputfun (quote input-funbox) "list of triples: FIRST integer in [1 , 6] or integer list beginning :t, :ti, :tp, or :tip; SECOND & THIRD integers" "INCSPEC-TRIPLES" (list (list (list (quote :t) 0 1 2) 0 1))))) (om-make-point 5 277) nil nil nil nil 1))) (setf (frame-position newbox) (om-make-point 5 277)) newbox) (om-load-boxcall (quote genfun) "FILTER-CHORDLIST" (quote filter-chordlist) (quote ((om-load-inputfun (quote input-funbox) "test" "TEST" nil) (om-load-inputfun (quote input-funbox) "list of chords" "CHORDLIST" nil) (om-load-inputfunmenu1 (quote input-funmenu) "" "REJECT" nil (list (list "pass" nil) (list "reject" (quote t)))))) (om-make-point 100 352) nil nil nil nil 1) (om-load-boxcall (quote bastype) "list4" (quote list) (quote nil) (om-make-point 135 199) (om-make-point 20 28) 4 "4" nil) (om-load-boxcall (quote genfun) "LIST-TI-PRIMEFORMS" (quote list-ti-primeforms) (quote ((om-load-inputfun (quote input-funbox) "number of elements in each primeform (or a list of such numbers)" "CARD" 3) (om-load-inputfunmenu1 (quote input-funmenu) "" "TAG" nil (list (list "normal" nil) (list "tagged [:ti]" (quote :ti)))))) (om-make-point 117 227) nil nil nil nil 1) (om-load-boxcall (quote lispfun) "LIST3" (quote list) (quote ((om-load-inputfun (quote input-funbox) "add-input" "add-input" nil) (om-load-inputfun (quote input-funbox) "add-input" "add-input" 1) (om-load-inputfun (quote input-funbox) "add-input" "add-input" 99))) (om-make-point 13 177) nil nil nil nil 1) (om-load-boxcall (quote lispfun) "CONS" (quote cons) (quote ((om-load-inputfun (quote input-funbox) "X" "X" (quote :ti)) (om-load-inputfun (quote input-funbox) "LIST-OR-THING" "LIST-OR-THING" nil))) (om-make-point 51 136) nil nil nil nil 1) (om-load-boxcall (quote bastype) "list1" (quote list) (quote nil) (om-make-point 105 34) (om-make-point 20 28) 7 "7" nil) (om-load-boxcall (quote bastype) "list" (quote list) (quote nil) (om-make-point 47 34) (om-make-point 20 28) 3 "3" nil) (om-load-boxcall (quote patch-box) "from_forte_numbers" (quote ("elements" "ompitchfield" "misc" "forte" "basics" "from_forte_numbers")) (quote ((om-load-inputfun (quote input-funbox) "no documentation" "card" nil) (om-load-inputfun (quote input-funbox) "no documentation" "forte-num" nil))) (om-make-point 28 66) nil nil nil nil 1))) (quote ((1 0 0 0 nil 0) (2 0 0 1 nil 0) (0 0 3 1 nil 0) (3 0 4 0 nil 0) (7 0 5 0 nil 0) (5 0 6 1 nil 0) (7 1 6 2 nil 0) (8 0 7 0 nil 0) (25 0 8 0 nil 1) (17 0 8 1 nil 5) (12 0 8 2 nil 6) (16 0 11 1 nil 0) (11 0 12 0 nil 0) (14 0 12 1 nil 0) (13 0 14 0 nil 0) (15 0 16 0 nil 0) (17 0 16 1 nil 5) (18 0 17 0 nil 0) (20 0 17 1 nil 0) (22 0 18 1 nil 0) (19 0 20 0 nil 0) (21 0 22 0 nil 0) (25 0 22 1 nil 1) (28 0 23 0 nil 0) (4 0 23 1 nil 0) (23 0 24 0 nil 0) (24 0 25 0 nil 0) (27 0 25 1 nil 0) (26 0 27 0 nil 0) (29 0 28 0 nil 0) (32 0 29 1 nil 0) (31 0 32 0 nil 0) (30 0 32 1 nil 0))) nil 6.04))
